HIERARCHY
ROOT Hips
{
	OFFSET 0.00000 0.00000 0.00000
	CHANNELS 6 Xposition Yposition Zposition Zrotation Yrotation Xrotation 
	JOINT LHipJoint
	{
		OFFSET 0 0 0
		CHANNELS 3 Zrotation Yrotation Xrotation
		JOINT LeftHip
		{
			OFFSET 1.51378 -1.89840 0.47569
			CHANNELS 3 Zrotation Yrotation Xrotation
			JOINT LeftKnee
			{
				OFFSET 2.53380 -6.96157 0.00000
				CHANNELS 3 Zrotation Yrotation Xrotation
				JOINT LeftAnkle
				{
					OFFSET 2.74874 -7.55212 0.00000
					CHANNELS 3 Zrotation Yrotation Xrotation
					JOINT LeftToe
					{
						OFFSET 0.18263 -0.50178 1.99677
						CHANNELS 3 Zrotation Yrotation Xrotation
						End Site
						{
							OFFSET 0.00000 -0.00000 1.03711
						}
					}
				}
			}
		}
	}
	JOINT RHipJoint
	{
		OFFSET 0 0 0
		CHANNELS 3 Zrotation Yrotation Xrotation
		JOINT RightHip
		{
			OFFSET -1.43037 -1.89840 0.47569
			CHANNELS 3 Zrotation Yrotation Xrotation
			JOINT RightKnee
			{
				OFFSET -2.69849 -7.41406 0.00000
				CHANNELS 3 Zrotation Yrotation Xrotation
				JOINT RightAnkle
				{
					OFFSET -2.69369 -7.40087 0.00000
					CHANNELS 3 Zrotation Yrotation Xrotation
					JOINT RightToe
					{
						OFFSET -0.28932 -0.79491 2.04975
						CHANNELS 3 Zrotation Yrotation Xrotation
						End Site
						{
							OFFSET 0.00009 0.00010 1.09536
						}
					}
				}
			}
		}
	}
	JOINT lowerback
	{
		OFFSET 0 0 0
		CHANNELS 3 Zrotation Yrotation Xrotation
		JOINT Chest
		{
			OFFSET 0.01912 1.94784 -0.02419
			CHANNELS 3 Zrotation Yrotation Xrotation
			JOINT Chest2
			{
				OFFSET 0.07565 1.94258 0.01909
				CHANNELS 3 Zrotation Yrotation Xrotation
				JOINT lowerneck
				{
					OFFSET 0 0 0
					CHANNELS 3 Zrotation Yrotation Xrotation
					JOINT Neck
					{
						OFFSET -0.07010 1.86195 0.18976
						CHANNELS 3 Zrotation Yrotation Xrotation
						JOINT Head
						{
							OFFSET 0.02284 1.86595 -0.31497
							CHANNELS 3 Zrotation Yrotation Xrotation
							End Site
							{
								OFFSET 0.01200 1.90122 -0.12838
							}
						}
					}
				}
				JOINT LeftCollar
				{
					OFFSET 0 0 0
					CHANNELS 3 Zrotation Yrotation Xrotation
					JOINT LeftShoulder
					{
						OFFSET 3.39189 0.96331 -0.10437
CHANNELS 3 Zrotation Xrotation Yrotation
						JOINT LeftElbow
						{
OFFSET 0 -5.148450 0.000000
CHANNELS 3 Zrotation Xrotation Yrotation
							JOINT LeftWrist
							{
OFFSET 0 -3.436740 -0.000000
CHANNELS 3 Zrotation Xrotation Yrotation
								JOINT lhand
								{
									OFFSET 0 0 0
CHANNELS 3 Zrotation Xrotation Yrotation
									JOINT LFingers
									{
OFFSET 0 -0.588710 0.000000
CHANNELS 3 Zrotation Xrotation Yrotation
										End Site
										{
OFFSET 0 -0.474630 0.000000
										}
									}
								}
								JOINT LThumb
								{
OFFSET 0 0.000000 0.000000
CHANNELS 3 Zrotation Xrotation Yrotation
									End Site
									{
OFFSET 0 -0.481880 0.481880
									}
								}
							}
						}
					}
				}
				JOINT RightCollar
				{
					OFFSET 0 0 0
					CHANNELS 3 Zrotation Yrotation Xrotation
					JOINT RightShoulder
					{
						OFFSET -3.34934 1.18831 -0.19928
CHANNELS 3 Zrotation Xrotation Yrotation
						JOINT RightElbow
						{
OFFSET 0 -5.421850 0.000000
CHANNELS 3 Zrotation Xrotation Yrotation
							JOINT RightWrist
							{
OFFSET 0 -3.513170 -0.000000
CHANNELS 3 Zrotation Xrotation Yrotation
								JOINT rhand
								{
									OFFSET 0 0 0
CHANNELS 3 Zrotation Xrotation Yrotation
									JOINT RFingers
									{
OFFSET 0 -0.663190 0.000000
CHANNELS 3 Zrotation Xrotation Yrotation
										End Site
										{
OFFSET 0 -0.534680 0.000000
										}
									}
								}
								JOINT RThumb
								{
OFFSET 0 0.000000 0.000000
CHANNELS 3 Zrotation Xrotation Yrotation
									End Site
									{
OFFSET 0 -0.542840 0.542840
									}
								}
							}
						}
					}
				}
			}
		}
	}
}
MOTION
Frames: 7
Frame Time: 0.008333333333333333
-0.217600 18.033200 -0.702900 -2.358200 -26.885300 6.946300 0.000000 0.000000 0.000000 -19.465800 -6.205700 -14.138300 2.349400 9.558700 27.559200 1.058300 1.961700 -20.233800 0.539200 -4.704900 -13.068900 0.000000 0.000000 0.000000 26.087700 9.190600 -14.448300 -3.338300 -11.223600 33.037700 -1.718800 -4.557100 -26.752700 -0.043900 1.352900 -3.720500 0.148400 0.094000 -1.323200 3.043500 0.111300 -0.790700 3.041400 0.057200 -0.074200 -4.417600 -3.585300 -17.370600 0.762500 -3.903700 14.521600 0.521900 -2.044700 7.420600 -0.000000 0.000000 0.000000 -0.841200 4.810800 -12.724000 15.883600 -25.362500 3.595900 14.580000 7.632700 -25.888500 0.000000 0.000000 0.000000 -7.125000 0.000000 0.000000 -16.467700 55.845600 4.468800 -0.000000 0.000000 0.000000 -2.863800 -0.740800 13.233000 -13.587500 -22.141900 -2.670700 -25.849900 -3.206800 -15.400100 0.000000 0.000000 0.000000 7.125000 0.000000 -0.000000 1.196700 12.964500 0.897900
-0.256676 18.007250 -0.670274 -2.011243 -26.896241 6.648272 0.000000 0.000000 0.000000 -19.658327 -5.311677 -13.721019 2.226876 9.323443 26.812437 1.135340 1.363291 -20.667519 0.924489 -6.124776 -17.147067 0.000000 0.000000 0.000000 25.869325 9.242886 -14.533021 -3.496699 -11.458773 33.843169 -1.751732 -4.871910 -27.146724 -0.065503 1.649202 -4.537165 -0.299363 0.085614 -1.642494 2.691636 0.098910 -0.540522 2.931612 0.047609 0.361725 -3.719592 -3.362567 -18.142457 0.566962 -3.710167 15.078167 0.352074 -1.931367 7.712860 0.000000 0.000000 0.000000 -0.379016 4.363207 -13.409810 16.027940 -25.558467 3.658011 15.052807 7.172811 -24.952049 0.000000 0.000000 0.000000 -7.125000 0.000000 0.000000 -15.483132 55.030622 3.882763 0.000000 0.000000 0.000000 -2.422509 -1.231056 13.286773 -13.691988 -22.292711 -2.710165 -26.202231 -3.072194 -14.671340 0.000000 0.000000 0.000000 7.125000 0.000000 0.000000 0.898811 13.714336 0.660171
-0.298550 18.018634 -0.604367 -2.067456 -26.432071 6.696775 0.000000 0.000000 0.000000 -19.854449 -5.976837 -13.398956 2.267432 9.402214 27.061774 0.996563 1.442002 -19.432903 0.656000 -5.179801 -14.422246 0.000000 0.000000 0.000000 26.123675 8.725299 -14.042525 -3.338049 -11.223132 33.036096 -1.643666 -5.871902 -26.940520 -0.167132 2.634025 -7.261392 -0.371184 -0.055078 -1.769742 2.750638 -0.082959 -0.881270 3.029556 -0.038813 0.093565 -4.157858 -3.359754 -17.695790 0.775140 -3.656086 15.432253 0.501898 -1.915753 7.766046 0.000000 0.000000 0.000000 -0.754964 4.741594 -13.043885 15.945179 -25.446250 3.622388 15.041775 7.622328 -25.243406 0.000000 0.000000 0.000000 -7.125000 0.000000 0.000000 -15.648249 55.311983 4.034107 0.000000 0.000000 0.000000 -2.619778 -0.522399 13.347069 -13.797067 -22.443868 -2.750167 -26.044192 -3.211309 -13.952411 0.000000 0.000000 0.000000 7.125000 0.000000 0.000000 0.948215 14.523774 0.680207
-0.325300 18.032099 -0.573150 -2.236448 -26.732755 7.382307 0.000000 0.000000 0.000000 -19.727473 -6.704521 -13.390928 2.203777 9.278230 26.669539 0.944624 1.902204 -19.139516 0.458759 -4.344591 -12.048140 0.000000 0.000000 0.000000 26.257828 9.300100 -14.243665 -3.294173 -11.156697 32.810165 -1.632246 -5.886266 -26.868046 -0.147727 2.476845 -6.825404 -0.407864 -0.023190 -1.927202 2.728115 -0.037596 -1.093069 3.027970 -0.013461 -0.037816 -4.092983 -3.460237 -18.085574 0.656037 -3.767357 15.426319 0.432694 -1.974517 7.830214 0.000000 0.000000 0.000000 -0.689384 4.661728 -13.059785 15.954190 -25.458546 3.626257 15.059542 7.564138 -24.991486 0.000000 0.000000 0.000000 -7.125000 0.000000 0.000000 -15.496837 55.070401 3.901318 0.000000 0.000000 0.000000 -2.564451 -0.530321 13.014268 -13.681603 -22.277618 -2.706217 -26.146779 -2.423424 -13.918199 0.000000 0.000000 0.000000 7.125000 0.000000 0.000000 0.875917 14.548351 0.627967
-0.333901 18.033334 -0.547032 -2.747919 -27.060250 7.700567 0.000000 0.000000 0.000000 -19.288853 -6.514736 -13.553545 2.248167 9.364967 26.943803 0.956602 2.197164 -19.392080 0.519113 -4.617656 -12.821159 0.000000 0.000000 0.000000 26.717534 9.442812 -14.055927 -3.258870 -11.102705 32.627116 -1.668696 -5.385419 -26.843420 -0.100537 2.026314 -5.579016 -0.014544 0.052669 -1.960678 2.802524 0.053604 -0.996169 2.884830 0.029069 0.075604 -4.380664 -3.782744 -17.818535 0.882253 -4.188020 15.318256 0.507922 -2.169506 7.770143 0.000000 0.000000 0.000000 -0.551886 4.649114 -13.533574 16.097347 -25.652440 3.687991 14.815966 7.454242 -25.108931 0.000000 0.000000 0.000000 -7.125000 0.000000 0.000000 -15.804413 55.137114 4.007635 0.000000 0.000000 0.000000 -2.587349 -0.731976 13.439604 -13.722841 -22.337110 -2.721869 -26.522019 -2.966184 -13.960848 0.000000 0.000000 0.000000 7.125000 0.000000 0.000000 0.623929 14.452877 0.448368
-0.347442 18.031166 -0.529790 -2.990548 -27.173900 7.770149 0.000000 0.000000 0.000000 -19.051816 -6.545427 -13.524418 2.283841 9.433882 27.162120 0.983650 2.193978 -19.647630 0.445550 -4.282573 -11.873086 0.000000 0.000000 0.000000 27.012685 9.568217 -13.829568 -3.236825 -11.068867 32.512526 -1.642895 -5.591057 -26.775685 -0.112136 2.158804 -5.944780 -0.029941 -0.067000 -1.946833 2.813569 -0.107158 -0.932552 2.901586 -0.052242 0.141173 -4.251536 -4.151739 -17.520265 0.657044 -4.700479 15.476908 0.354687 -2.430842 7.776119 0.000000 0.000000 0.000000 -0.296731 4.494315 -13.231154 15.902180 -25.387750 3.603926 15.679944 7.479568 -24.914805 0.000000 0.000000 0.000000 -7.125000 0.000000 0.000000 -14.829950 55.116370 3.744396 0.000000 0.000000 0.000000 -2.315565 -0.988746 13.580181 -13.885299 -22.570553 -2.783946 -25.512492 -2.797944 -13.684292 0.000000 0.000000 0.000000 7.125000 0.000000 0.000000 1.290417 14.884048 0.915917
-0.347400 18.024902 -0.508400 -3.126813 -27.711370 7.848960 0.000000 0.000000 0.000000 -19.002537 -6.568602 -13.525363 2.315142 9.493735 27.352402 0.996354 2.405190 -19.867286 0.308129 -3.568131 -9.864866 0.000000 0.000000 0.000000 27.072468 9.850973 -13.645380 -3.234255 -11.064958 32.499228 -1.664100 -5.336599 -26.783529 -0.107358 2.112328 -5.816216 -0.318266 -0.130214 -1.790619 2.912101 -0.184017 -0.988793 3.164838 -0.088358 0.000942 -4.529723 -4.510006 -17.198331 0.770037 -5.158251 15.490879 0.387574 -2.656105 7.747713 0.000000 0.000000 0.000000 -0.421311 4.719377 -12.697248 16.042285 -25.577980 3.664244 17.199873 7.990218 -23.522026 0.000000 0.000000 0.000000 -7.125000 0.000000 0.000000 -12.625284 54.031688 2.839269 0.000000 0.000000 0.000000 -2.362303 -0.810501 13.879972 -13.782780 -22.423321 -2.744742 -25.749168 -2.619007 -13.773594 0.000000 0.000000 0.000000 7.125000 0.000000 0.000000 1.135529 14.757051 0.809023
